<svg width="194" height="230" viewBox="0 0 194 230" fill="none" xmlns="http://www.w3.org/2000/svg">
<path d="M60.0772 229.754C67.8518 229.754 74.1543 228.802 74.1543 227.628C74.1543 226.454 67.8518 225.502 60.0772 225.502C52.3026 225.502 46 226.454 46 227.628C46 228.802 52.3026 229.754 60.0772 229.754Z" fill="#12B2EB"/>
<path d="M66.1947 223.365C66.8289 222.815 67.4243 222.159 67.6056 221.38C67.7868 220.601 67.4295 219.646 66.6192 219.359C65.7131 219.036 64.7449 219.62 64.0123 220.211C63.2796 220.802 62.4357 221.477 61.4752 221.351C61.9714 220.933 62.3423 220.402 62.5515 219.81C62.7607 219.218 62.8011 218.586 62.6687 217.975C62.6273 217.724 62.5127 217.488 62.3373 217.293C61.8351 216.791 60.9238 217.006 60.3206 217.401C58.4075 218.655 57.8716 221.079 57.8612 223.261C57.6671 222.473 57.8302 221.653 57.825 220.85C57.8198 220.047 57.5842 219.147 56.8542 218.713C56.3979 218.486 55.8854 218.374 55.3682 218.39C54.5087 218.361 53.556 218.441 52.9632 219.027C52.2305 219.75 52.4221 220.978 53.0564 221.781C53.6906 222.584 54.6589 223.085 55.5494 223.64C56.2251 224.062 56.9111 224.554 57.3279 225.222C57.3828 225.311 57.427 225.406 57.46 225.504H62.8525C64.0646 224.934 65.1887 224.215 66.1947 223.365V223.365Z" fill="#12B2EB"/>
<g opacity="0.4">
<path d="M159.726 204C163.993 204 167.452 203.478 167.452 202.833C167.452 202.189 163.993 201.666 159.726 201.666C155.459 201.666 152 202.189 152 202.833C152 203.478 155.459 204 159.726 204Z" fill="#12B2EB"/>
<path d="M163.084 200.493C163.432 200.192 163.759 199.832 163.858 199.404C163.958 198.977 163.761 198.452 163.317 198.295C162.819 198.118 162.288 198.438 161.886 198.762C161.484 199.086 161.021 199.457 160.494 199.388C160.766 199.159 160.969 198.867 161.084 198.542C161.199 198.218 161.221 197.87 161.149 197.535C161.126 197.397 161.063 197.268 160.967 197.161C160.691 196.885 160.191 197.003 159.86 197.22C158.81 197.908 158.516 199.239 158.51 200.436C158.403 200.004 158.493 199.554 158.49 199.113C158.487 198.672 158.358 198.178 157.957 197.94C157.707 197.815 157.426 197.754 157.142 197.763C156.67 197.747 156.147 197.791 155.822 198.112C155.42 198.509 155.525 199.183 155.873 199.624C156.221 200.065 156.752 200.34 157.241 200.644C157.612 200.876 157.989 201.146 158.217 201.513C158.247 201.562 158.272 201.614 158.29 201.667H161.249C161.915 201.355 162.532 200.96 163.084 200.493V200.493Z" fill="#12B2EB"/>
</g>
<rect x="81" y="112" width="14" height="95" fill="black"/>
<path d="M87.8498 88.4479H82.543V189.475H87.8498V88.4479Z" fill="black"/>
<path d="M87.85 88.4479H86.4741V189.475H87.85V88.4479Z" fill="#1A1A1A"/>
<path d="M89.8447 117.142V0.00983905C89.8899 0.00787354 89.9351 0.00787354 89.9803 0.00787354C95.584 1.39356 102.522 3.56545 109.981 7.05816C110.048 7.08764 110.117 7.12105 110.182 7.1525C120.035 11.7911 125.711 20.9406 124.733 30.4576C122.588 51.3509 120.446 72.2482 118.301 93.1416C118.301 99.7418 115.115 105.742 109.981 110.092C104.847 114.444 97.7697 117.144 89.9803 117.144C89.9351 117.144 89.8919 117.144 89.8447 117.142Z" fill="#12B2EB"/>
<path d="M69.5094 7.14463C69.5742 7.11318 69.643 7.07977 69.7099 7.05028C77.167 3.55757 84.1053 1.38568 89.7089 0C89.7541 0 89.7993 0 89.8445 0.00196551V117.135C89.7993 117.137 89.7541 117.137 89.7089 117.137C81.9196 117.137 74.8418 114.436 69.7079 110.086C64.5759 105.737 61.3879 99.7359 61.3879 93.1357C59.2435 72.2423 57.1011 51.345 54.9567 30.4516C53.9799 20.9327 59.6543 11.7852 69.5094 7.14463Z" fill="#12B2EB"/>
<g opacity="0.13">
<path opacity="0.5" d="M69.5094 7.14463C69.5742 7.11318 69.643 7.07977 69.7099 7.05029C77.167 3.55757 84.1053 1.38568 89.7089 0C89.7541 0 89.7993 0 89.8445 0.00196551V117.135C89.7993 117.137 89.7541 117.137 89.7089 117.137C81.9196 117.137 74.8418 114.436 69.7079 110.086C64.576 105.737 61.3879 99.7359 61.3879 93.1357C59.2435 72.2423 57.1011 51.345 54.9567 30.4516C53.9799 20.9327 59.6543 11.7852 69.5094 7.14463Z" fill="black"/>
</g>
<path d="M84 164.677V165.677H85H98.4166C114.781 165.677 128.093 152.365 128.093 136V135H127.093H123.949H122.949V136C122.949 149.527 111.943 160.532 98.4166 160.532H85H84V161.532V164.677Z" fill="black" stroke="black" stroke-width="2"/>
<path d="M125 149.818V99.0038C125.029 99.0018 125.057 99.0018 125.086 99.0018C128.61 99.6033 132.971 100.545 137.66 102.06C137.702 102.074 137.745 102.088 137.785 102.101C143.981 104.114 147.547 108.082 146.932 112.212C145.584 121.277 144.237 130.342 142.89 139.405C142.89 142.269 140.887 144.871 137.66 146.758C134.432 148.645 129.983 149.816 125.086 149.816C125.057 149.818 125.029 149.818 125 149.818Z" fill="#12B2EB"/>
<path d="M112.216 102.1C112.256 102.086 112.298 102.072 112.341 102.058C117.03 100.543 121.391 99.5995 124.915 99C124.943 99 124.972 99 125 99.002V149.816C124.972 149.818 124.943 149.818 124.915 149.818C120.018 149.818 115.569 148.647 112.341 146.76C109.114 144.873 107.111 142.271 107.111 139.407C105.764 130.342 104.416 121.277 103.069 112.214C102.451 108.081 106.02 104.112 112.216 102.1Z" fill="#12B2EB"/>
<g opacity="0.5">
<path opacity="0.13" d="M112.216 102.1C112.256 102.086 112.298 102.072 112.341 102.058C117.03 100.543 121.391 99.5995 124.915 99C124.943 99 124.972 99 125 99.002V149.816C124.972 149.818 124.943 149.818 124.915 149.818C120.018 149.818 115.569 148.647 112.341 146.76C109.114 144.873 107.111 142.271 107.111 139.407C105.764 130.342 104.416 121.277 103.069 112.214C102.451 108.081 106.02 104.112 112.216 102.1Z" fill="black"/>
</g>
<path d="M87.2169 141H88.2169V140V136.016V135.016H87.2169H73.8003C60.4812 135.016 49.2684 121.188 49.2684 103.671V102.671H48.2684H45.1235H44.1235V103.671C44.1235 124.022 57.228 141 73.8003 141H87.2169Z" fill="black" stroke="black" stroke-width="2"/>
<path d="M49.6346 128.86V65.0061C49.5993 65.0042 49.5667 65.0042 49.5314 65.0042C45.3105 65.7589 40.082 66.9441 34.465 68.8487C34.4134 68.8644 34.3618 68.8821 34.3129 68.8998C26.8924 71.4294 22.6173 76.4159 23.3533 81.6049C24.9694 92.995 26.5828 104.387 28.1989 115.777C28.1989 119.376 30.6 122.647 34.4677 125.017C38.3355 127.389 43.6673 128.862 49.5341 128.862C49.5667 128.86 49.5993 128.86 49.6346 128.86Z" fill="#12B2EB"/>
<path d="M64.9564 68.8956C64.9076 68.878 64.8559 68.8603 64.8043 68.8445C59.1847 66.94 53.9588 65.7548 49.738 65C49.7027 65 49.6701 65 49.6348 65.002V128.855C49.6701 128.857 49.7027 128.857 49.738 128.857C55.6048 128.857 60.9393 127.385 64.8043 125.013C68.6721 122.641 71.0732 119.372 71.0732 115.773C72.6893 104.383 74.3026 92.9908 75.9187 81.6007C76.6521 76.4118 72.3796 71.4253 64.9564 68.8956Z" fill="#12B2EB"/>
<g opacity="0.13">
<path opacity="0.5" d="M34.0441 69.2888C34.093 69.2711 34.1446 69.2534 34.1962 69.2377C39.8159 67.3331 45.0417 66.1479 49.2626 65.3932C49.2979 65.3932 49.3305 65.3932 49.3658 65.3952V129.249C49.3305 129.251 49.2979 129.251 49.2626 129.251C43.3958 129.251 38.0613 127.778 34.1962 125.406C30.3285 123.034 27.9274 119.765 27.9274 116.166C26.3113 104.774 24.6979 93.384 23.0818 81.9939C22.3458 76.8049 26.621 71.8184 34.0441 69.2888Z" fill="black"/>
</g>
<path opacity="0.06" d="M89.5 214C121.256 214 147 210.866 147 207C147 203.134 121.256 200 89.5 200C57.7436 200 32 203.134 32 207C32 210.866 57.7436 214 89.5 214Z" fill="#403F3F"/>
<path d="M11.8795 186C11.8795 186 13.4589 188.004 11.153 191.016C8.84707 194.029 6.94608 196.59 7.70705 198.477C7.70705 198.477 11.1874 192.861 14.0246 192.783C16.8617 192.705 14.9952 189.378 11.8795 186Z" fill="#12B2EB"/>
<path d="M3.54644 186C3.54644 186 1.96706 188.004 4.27295 191.016C6.57885 194.029 8.47985 196.59 7.71887 198.477C7.71887 198.477 4.24136 192.861 1.40135 192.783C-1.43866 192.705 0.425009 189.378 3.54644 186Z" fill="#12B2EB"/>
<path d="M1.11426 198.227C1.11426 198.227 5.52502 198.093 6.85744 197.176C8.18986 196.259 13.643 195.159 13.9704 196.633C14.2977 198.107 20.6009 203.96 15.6215 203.999C10.6422 204.038 4.04903 203.246 2.72235 202.463C1.39568 201.68 1.11426 198.227 1.11426 198.227Z" fill="#A8A8A8"/>
<path d="M193.353 28.0303C193.353 28.0303 163.804 26.625 167.285 42.9464C167.285 42.9464 166.583 45.8316 169.91 47.1401C169.91 47.1401 169.963 45.9312 172.942 46.3434C174.003 46.482 175.081 46.5229 176.153 46.4651C177.601 46.3901 178.978 45.9464 180.077 45.2009V45.2009C180.077 45.2009 188.384 42.4954 191.613 31.7953C191.613 31.7953 194.002 29.4605 193.908 28.8602L188.921 30.5394C188.921 30.5394 190.626 33.3749 189.272 35.7318C189.272 35.7318 189.11 30.6417 188.152 30.7524C187.959 30.7745 185.562 31.7344 185.562 31.7344C185.562 31.7344 188.493 36.6723 186.282 40.263C186.282 40.263 187.12 34.1771 184.646 32.0913L181.137 33.7068C181.137 33.7068 184.562 38.8079 182.239 42.9713C182.239 42.9713 182.835 36.5866 180.396 34.0996L177.217 36.0554C177.217 36.0554 180.435 41.0819 178.473 44.5342C178.473 44.5342 178.217 37.1039 176.529 36.5423C176.529 36.5423 173.746 38.4787 173.321 39.2699C173.321 39.2699 175.525 42.9215 174.157 44.8468C174.157 44.8468 173.318 39.8951 172.63 39.8674C172.63 39.8674 169.858 43.1483 169.57 45.4001C169.57 45.4001 169.689 42.0556 171.96 39.5576C171.96 39.5576 169.278 39.92 167.713 41.2893C167.713 41.2893 168.145 38.9711 172.644 38.7664C172.644 38.7664 174.936 36.2767 175.546 36.1274C175.546 36.1274 171.075 35.8314 168.362 36.7802C168.362 36.7802 170.749 34.5921 176.368 35.5879L179.508 33.5657C179.508 33.5657 173.62 32.9323 171.121 33.6321C171.121 33.6321 173.995 31.6957 180.354 33.1065L183.772 31.4965C183.772 31.4965 178.75 30.6445 175.76 30.9433C175.76 30.9433 178.919 29.6016 184.776 31.0567L187.233 30.1908C187.233 30.1908 183.555 29.621 182.477 29.5297C181.4 29.4384 181.344 29.206 181.344 29.206C183.674 28.8997 186.066 29.1095 188.254 29.8118C188.254 29.8118 193.441 28.2876 193.353 28.0303Z" fill="#12B2EB"/>
<path d="M163.752 61.0143C163.752 61.0143 150.575 60.3535 152.127 68.028C152.127 68.028 151.814 69.3847 153.298 70C153.298 70 153.321 69.4316 154.65 69.6254C155.123 69.6906 155.603 69.7098 156.082 69.6826C156.727 69.6474 157.341 69.4387 157.831 69.0882V69.0882C157.831 69.0882 161.536 67.816 162.975 62.7846C162.975 62.7846 164.041 61.6868 163.999 61.4045L161.775 62.1941C161.775 62.1941 162.536 63.5274 161.931 64.6356C161.931 64.6356 161.859 62.2422 161.432 62.2942C161.346 62.3046 160.277 62.756 160.277 62.756C160.277 62.756 161.584 65.0779 160.598 66.7663C160.598 66.7663 160.972 63.9046 159.869 62.9238L158.304 63.6834C158.304 63.6834 159.831 66.0821 158.795 68.0397C158.795 68.0397 159.061 65.0376 157.974 63.8682L156.556 64.7878C156.556 64.7878 157.991 67.1513 157.116 68.7747C157.116 68.7747 157.002 65.2808 156.249 65.0167C156.249 65.0167 155.008 65.9273 154.819 66.2993C154.819 66.2993 155.802 68.0163 155.191 68.9217C155.191 68.9217 154.817 66.5933 154.511 66.5803C154.511 66.5803 153.274 68.123 153.146 69.1818C153.146 69.1818 153.199 67.6092 154.212 66.4346C154.212 66.4346 153.016 66.605 152.318 67.2489C152.318 67.2489 152.511 66.1588 154.517 66.0626C154.517 66.0626 155.539 64.8919 155.811 64.8216C155.811 64.8216 153.817 64.6824 152.608 65.1286C152.608 65.1286 153.672 64.0997 156.177 64.568L157.578 63.6171C157.578 63.6171 154.952 63.3192 153.838 63.6483C153.838 63.6483 155.119 62.7378 157.955 63.4012L159.479 62.6441C159.479 62.6441 157.24 62.2435 155.906 62.384C155.906 62.384 157.315 61.7531 159.927 62.4373L161.022 62.0302C161.022 62.0302 159.382 61.7622 158.902 61.7193C158.421 61.6764 158.396 61.5671 158.396 61.5671C159.435 61.4231 160.502 61.5217 161.478 61.852C161.478 61.852 163.791 61.1352 163.752 61.0143Z" fill="#12B2EB"/>
</svg>
