<svg width="70" height="45" viewBox="0 0 70 45" fill="none" xmlns="http://www.w3.org/2000/svg">
<path fill-rule="evenodd" clip-rule="evenodd" d="M5.46237 0.785201C5.60954 0.416085 5.71588 0.149378 5.76973 0L24.6858 5.80521C24.5006 6.31884 24.258 6.94468 23.9802 7.66119C22.6601 11.0658 20.5464 16.5176 20.0342 21.7063C19.7633 24.451 20.1158 25.8248 20.3185 26.3074C20.3761 26.3228 20.449 26.3402 20.5387 26.3578C20.6338 26.3764 20.7475 26.3952 20.881 26.4123C21.1653 26.0758 21.5411 25.5716 22.0059 24.8401C22.3791 24.2529 22.7417 23.631 23.1469 22.9237C23.2007 22.8298 23.2571 22.7309 23.3158 22.6282C23.6527 22.0384 24.062 21.322 24.4517 20.6904C24.8667 20.018 25.6015 18.8662 26.6057 17.8017C27.2464 17.1226 30.1182 14.1117 35.0465 14.1117C39.7469 14.1117 42.6072 16.8885 43.2307 17.4938L43.2406 17.5034C44.266 18.4986 45.0538 19.5874 45.5324 20.2759C46.0364 21.001 46.5483 21.8031 46.9723 22.4673L47.0275 22.5538C47.4992 23.2926 47.9209 23.9517 48.358 24.5923C48.8806 25.3582 49.3122 25.9254 49.6584 26.3346C49.678 26.33 49.6965 26.3256 49.7138 26.3213C49.9106 25.8164 50.2339 24.4423 49.9562 21.7405C49.4687 16.9979 47.9142 12.7611 46.6339 9.27152C46.0914 7.79291 45.5981 6.44844 45.256 5.25643L64.527 0.54878C64.5252 0.542569 64.5258 0.544334 64.5296 0.555777C64.5424 0.595024 64.5926 0.748128 64.7126 1.08375C64.8245 1.39643 64.9555 1.75311 65.1172 2.19381C65.1616 2.31453 65.2082 2.44156 65.2574 2.57572C65.6989 3.7797 66.2722 5.35694 66.8572 7.14064C68.0052 10.6406 69.3165 15.2794 69.8021 20.0039C70.2606 24.4644 70.1618 30.5292 66.843 35.7807C62.967 41.9138 56.1157 44.8718 48.0312 44.8718C42.8316 44.8718 39.0091 42.4482 36.7057 40.4619C36.2118 40.0361 35.744 39.5931 35.3022 39.143C34.8147 39.6353 34.2916 40.1197 33.7309 40.5844C31.0566 42.8009 27.1407 44.8718 22.0618 44.8718C13.979 44.8718 7.13649 41.9199 3.23524 35.8246C-0.118446 30.5849 -0.261381 24.5231 0.181329 20.0381C0.969413 12.0542 4.36045 3.54898 5.46237 0.785201ZM50.4104 27.0991C50.4104 27.0991 50.4034 27.0945 50.3891 27.0833C50.4032 27.0932 50.4104 27.0991 50.4104 27.0991Z" fill="#12B2EB"/>
</svg>
